<svg width="24" height="24" viewBox="0 0 24 24" fill="none" xmlns="http://www.w3.org/2000/svg">
<path d="M20.78 4.2802C21.0729 3.98734 21.0729 3.51251 20.78 3.21965C20.4871 2.92678 20.0123 2.92678 19.7194 3.21965L3.2194 19.7197C2.92654 20.0125 2.92654 20.4873 3.2194 20.7802C3.51227 21.0731 3.9871 21.0731 4.27996 20.7802L20.78 4.2802Z" fill="#BCE4FA"/>
<path d="M4.27996 3.21965C3.9871 2.92678 3.51227 2.92678 3.2194 3.21965C2.92654 3.51251 2.92654 3.98734 3.2194 4.2802L19.7194 20.7802C20.0123 21.0731 20.4871 21.0731 20.78 20.7802C21.0729 20.4873 21.0729 20.0125 20.78 19.7197L4.27996 3.21965Z" fill="#BCE4FA"/>
</svg>
