<svg width="24" height="24" viewBox="0 0 24 24" fill="none" xmlns="http://www.w3.org/2000/svg">
<g clip-path="url(#clip0)">
<path d="M23.4608 11.7159C23.2754 11.4409 18.8189 4.99976 11.774 4.99976C5.72888 4.99976 0.342176 11.4039 0.115523 11.6769C-0.0385076 11.8629 -0.0385076 12.1359 0.115523 12.3229C0.342176 12.5959 5.72888 19 11.774 19C17.8191 19 23.2057 12.5959 23.4324 12.3229C23.5747 12.1509 23.5874 11.9019 23.4608 11.7159ZM11.774 18C6.92792 18 2.32024 13.2899 1.14972 11.9999C2.31831 10.7089 6.92106 5.9998 11.774 5.9998C17.4442 5.9998 21.4465 10.7029 22.4237 11.9729C21.2953 13.2219 16.6612 18 11.774 18Z" fill="#0061C1"/>
<path d="M11.7741 8C9.60961 8 7.84937 9.79403 7.84937 12.0001C7.84937 14.2061 9.60961 16.0001 11.7741 16.0001C13.9386 16.0001 15.6988 14.2061 15.6988 12.0001C15.6988 9.79403 13.9386 8 11.7741 8ZM11.7741 15.0002C10.1512 15.0002 8.83054 13.6541 8.83054 12.0001C8.83054 10.3461 10.1512 9.00005 11.7741 9.00005C13.397 9.00005 14.7177 10.3461 14.7177 12.0001C14.7177 13.6541 13.397 15.0002 11.7741 15.0002Z" fill="#0061C1"/>
<path d="M14.9778 12.0684C14.9778 13.7252 13.6346 15.0684 11.9778 15.0684C10.3209 15.0684 8.47778 13.7252 8.47778 12.0684C8.47778 10.4115 10.3209 8.56836 11.9778 8.56836C13.6346 8.56836 14.9778 10.4115 14.9778 12.0684Z" fill="#0061C1"/>
<line x1="2.67618" y1="19.619" x2="22.6762" y2="2.61903" stroke="#0061C1"/>
</g>
<defs>
<clipPath id="clip0">
<rect width="23.5481" height="24" fill="white"/>
</clipPath>
</defs>
</svg>
