<svg width="24" height="24" viewBox="0 0 24 24" fill="none" xmlns="http://www.w3.org/2000/svg">
<g clip-path="url(#clip0)">
<path d="M23.4609 11.716C23.2754 11.441 18.8189 4.99988 11.774 4.99988C5.72889 4.99988 0.342192 11.404 0.115538 11.677C-0.0384924 11.863 -0.0384924 12.136 0.115538 12.323C0.342192 12.596 5.72889 19.0001 11.774 19.0001C17.8191 19.0001 23.2057 12.596 23.4324 12.323C23.5747 12.151 23.5874 11.902 23.4609 11.716ZM11.774 18.0001C6.92793 18.0001 2.32026 13.29 1.14974 12C2.31833 10.709 6.92108 5.99992 11.774 5.99992C17.4442 5.99992 21.4465 10.703 22.4238 11.973C21.2954 13.222 16.6612 18.0001 11.774 18.0001Z" fill="#0061C1"/>
<path d="M11.774 7.99991C9.60952 7.99991 7.84927 9.79394 7.84927 12C7.84927 14.206 9.60952 16 11.774 16C13.9385 16 15.6987 14.206 15.6987 12C15.6987 9.79394 13.9385 7.99991 11.774 7.99991ZM11.774 15.0001C10.1511 15.0001 8.83044 13.654 8.83044 12C8.83044 10.346 10.1511 8.99996 11.774 8.99996C13.3969 8.99996 14.7176 10.346 14.7176 12C14.7176 13.654 13.3969 15.0001 11.774 15.0001Z" fill="#0061C1"/>
<path d="M14.9779 12.0683C14.9779 13.7252 13.6348 15.0683 11.9779 15.0683C10.3211 15.0683 8.47791 13.7252 8.47791 12.0683C8.47791 10.4115 10.3211 8.56833 11.9779 8.56833C13.6348 8.56833 14.9779 10.4115 14.9779 12.0683Z" fill="#0061C1"/>
</g>
<defs>
<clipPath id="clip0">
<rect width="23.5481" height="24" fill="white"/>
</clipPath>
</defs>
</svg>
