<svg width="24" height="24" viewBox="0 0 24 24" fill="none" xmlns="http://www.w3.org/2000/svg">
<g clip-path="url(#clip0)">
<path d="M23.4608 11.716C23.2754 11.441 18.8189 4.99988 11.774 4.99988C5.72888 4.99988 0.342176 11.404 0.115523 11.677C-0.0385076 11.863 -0.0385076 12.136 0.115523 12.323C0.342176 12.596 5.72888 19.0001 11.774 19.0001C17.8191 19.0001 23.2057 12.596 23.4324 12.323C23.5747 12.151 23.5874 11.902 23.4608 11.716ZM11.774 18.0001C6.92792 18.0001 2.32024 13.29 1.14972 12C2.31831 10.709 6.92106 5.99992 11.774 5.99992C17.4442 5.99992 21.4465 10.703 22.4237 11.973C21.2953 13.222 16.6612 18.0001 11.774 18.0001Z" fill="#010066"/>
<path d="M11.7738 7.99992C9.60937 7.99992 7.84912 9.79395 7.84912 12C7.84912 14.206 9.60937 16 11.7738 16C13.9383 16 15.6986 14.206 15.6986 12C15.6986 9.79395 13.9383 7.99992 11.7738 7.99992ZM11.7738 15.0001C10.151 15.0001 8.83029 13.654 8.83029 12C8.83029 10.346 10.151 8.99997 11.7738 8.99997C13.3967 8.99997 14.7174 10.346 14.7174 12C14.7174 13.654 13.3967 15.0001 11.7738 15.0001Z" fill="#010066"/>
<path d="M14.978 12.0683C14.978 13.7252 13.6349 15.0683 11.978 15.0683C10.3212 15.0683 8.47803 13.7252 8.47803 12.0683C8.47803 10.4115 10.3212 8.56834 11.978 8.56834C13.6349 8.56834 14.978 10.4115 14.978 12.0683Z" fill="#010066"/>
</g>
<defs>
<clipPath id="clip0">
<rect width="23.5481" height="24" fill="white"/>
</clipPath>
</defs>
</svg>
