<svg width="24" height="24" viewBox="0 0 24 24" fill="none" xmlns="http://www.w3.org/2000/svg">
<path d="M12.0625 7.79273C12.8264 7.79273 13.4462 7.17291 13.4462 6.40898C13.4462 5.64412 12.8264 5.02612 12.0625 5.02612C11.2985 5.02612 10.6787 5.64417 10.6787 6.40898C10.6787 7.17291 11.2985 7.79273 12.0625 7.79273Z" fill="#5D83F5"/>
<path d="M13.0021 9.63783V9.15314V8.71533H10.2346V9.63783H11.1571V17.4791H10.2346V18.4016H13.9246V17.4791H13.0021V9.63783Z" fill="#5D83F5"/>
<path d="M12.0049 0.452393C5.63659 0.452393 0.473633 5.61535 0.473633 11.9836C0.473633 18.3529 5.63659 23.5149 12.0049 23.5149C18.3732 23.5149 23.5361 18.3529 23.5361 11.9836C23.5361 5.61535 18.3732 0.452393 12.0049 0.452393ZM12.0049 22.5924C6.15502 22.5924 1.39613 17.833 1.39613 11.9836C1.39613 6.13425 6.15507 1.37489 12.0049 1.37489C17.8547 1.37489 22.6136 6.13425 22.6136 11.9836C22.6136 17.833 17.8547 22.5924 12.0049 22.5924Z" fill="#5D83F5"/>
</svg>
