<svg width="32" height="32" viewBox="0 0 32 32" fill="none" xmlns="http://www.w3.org/2000/svg">
<path d="M16 0C7.16333 0 0 7.16333 0 16C0 24.8367 7.16333 32 16 32C24.8367 32 32 24.8367 32 16C32 7.16333 24.8367 0 16 0ZM17.068 23.294C17.068 23.9587 16.6447 24.0813 16.4107 24.0987H15.6233C15.0727 24.0987 14.9713 23.6847 14.9567 23.4547V13.2527C14.9567 12.492 15.79 12.4847 15.79 12.4847H16.1673C16.366 12.488 17.068 12.562 17.068 13.43V23.294ZM15.9633 10.5167C15.2193 10.5167 14.692 9.94067 14.692 9.22067C14.692 8.47667 15.244 7.90133 16.0113 7.90133C16.8033 7.90133 17.3067 8.47733 17.3067 9.22067C17.3313 9.94067 16.8033 10.5167 15.9633 10.5167Z" fill="#0061C1"/>
</svg>
