<svg width="20" height="20" viewBox="0 0 20 20" fill="none" xmlns="http://www.w3.org/2000/svg">
<path d="M17.2313 11.8655L15.9 11.0967C16.0344 10.3717 16.0344 9.62796 15.9 8.90296L17.2313 8.13421C17.3844 8.04671 17.4531 7.86546 17.4031 7.69671C17.0563 6.58421 16.4656 5.57796 15.6938 4.74046C15.575 4.61233 15.3813 4.58108 15.2313 4.66858L13.9 5.43733C13.3406 4.95608 12.6969 4.58421 12 4.34046V2.80608C12 2.63108 11.8781 2.47796 11.7063 2.44046C10.5594 2.18421 9.38439 2.19671 8.29377 2.44046C8.12189 2.47796 8.00002 2.63108 8.00002 2.80608V4.34358C7.30627 4.59046 6.66252 4.96233 6.10002 5.44046L4.77189 4.67171C4.61877 4.58421 4.42814 4.61233 4.30939 4.74358C3.53752 5.57796 2.9469 6.58421 2.60002 7.69983C2.5469 7.86858 2.61877 8.04983 2.7719 8.13733L4.10314 8.90608C3.96877 9.63108 3.96877 10.3748 4.10314 11.0998L2.7719 11.8686C2.61877 11.9561 2.55002 12.1373 2.60002 12.3061C2.9469 13.4186 3.53752 14.4248 4.30939 15.2623C4.42814 15.3905 4.62189 15.4217 4.77189 15.3342L6.10314 14.5655C6.66252 15.0467 7.30627 15.4186 8.00314 15.6623V17.1998C8.00314 17.3748 8.12502 17.528 8.29689 17.5655C9.44377 17.8217 10.6188 17.8092 11.7094 17.5655C11.8813 17.528 12.0031 17.3748 12.0031 17.1998V15.6623C12.6969 15.4155 13.3406 15.0436 13.9031 14.5655L15.2344 15.3342C15.3875 15.4217 15.5781 15.3936 15.6969 15.2623C16.4688 14.428 17.0594 13.4217 17.4063 12.3061C17.4531 12.1342 17.3844 11.953 17.2313 11.8655ZM10 12.4998C8.62189 12.4998 7.50002 11.378 7.50002 9.99983C7.50002 8.62171 8.62189 7.49983 10 7.49983C11.3781 7.49983 12.5 8.62171 12.5 9.99983C12.5 11.378 11.3781 12.4998 10 12.4998Z" fill="#767E8A"/>
</svg>
