<svg width="24" height="24" viewBox="0 0 24 24" fill="none" xmlns="http://www.w3.org/2000/svg">
<path d="M6.6 3C4.60559 3 3 4.60559 3 6.6V17.4C3 19.3944 4.60559 21 6.6 21H17.4C19.3944 21 21 19.3944 21 17.4V6.6C21 4.60559 19.3944 3 17.4 3H6.6ZM7.17305 6.08426H15.4088C16.1021 6.08426 16.6782 6.76569 16.6782 7.58613V8.70305C16.6892 9.62172 15.5194 9.62172 15.5304 8.70305V7.58613C15.5304 7.49489 15.4859 7.44305 15.4088 7.44305H7.17305C7.09594 7.44305 7.05211 7.49489 7.05211 7.58613V16.4135C7.05211 16.5048 7.09594 16.557 7.17305 16.557H15.4088C15.4859 16.557 15.5304 16.5048 15.5304 16.4135V15.2217C15.5194 14.3031 16.6892 14.3031 16.6782 15.2217V16.4135C16.6782 17.234 16.102 17.9157 15.4088 17.9157H7.17305C6.47975 17.9157 5.90391 17.234 5.90391 16.4135V7.58613C5.90391 6.76569 6.47975 6.08426 7.17305 6.08426ZM16.8537 9.99363C16.9495 9.99596 17.0432 10.0223 17.1261 10.0703L19.6099 11.5043C19.9912 11.7246 19.9912 12.275 19.6099 12.4954L17.1261 13.9294C16.7446 14.1494 16.628 13.874 16.628 13.4337V12.63H11.5064C10.7887 12.642 10.7887 11.358 11.5064 11.37H16.628V10.5656C16.628 10.2444 16.5325 9.98611 16.8537 9.99363Z" fill="#495872" fill-opacity="0.6"/>
</svg>
