<svg width="171" height="44" viewBox="0 0 171 44" fill="none" xmlns="http://www.w3.org/2000/svg">
<rect width="171" height="44" rx="5" fill="white"/>
<path fill-rule="evenodd" clip-rule="evenodd" d="M56.4247 17.0146C55.094 17.6721 54.6376 18.9019 54.6319 21.8473C54.6258 24.833 55.1026 26.5587 56.0733 27.0659C57.1236 27.6147 66.5366 27.5027 67.3358 26.9319C67.7026 26.6699 68.2976 26.5311 68.6579 26.6231C69.3625 26.8029 69.604 25.8763 68.9549 25.4846C68.7568 25.365 68.5967 23.7815 68.5967 21.9393C68.5967 18.7263 68.5601 18.5745 67.5496 17.5878L66.5026 16.5655L61.9078 16.5707C58.9429 16.5739 56.9979 16.7316 56.4247 17.0146ZM76.358 16.7988C76.2265 16.9268 76.1191 19.3664 76.1191 22.2202C76.1191 27.175 76.1513 27.4083 76.8355 27.4083C77.515 27.4083 77.5519 27.175 77.5519 22.8613C77.5519 20.3605 77.673 18.3182 77.8205 18.3234C77.9681 18.3283 79.5267 20.3744 81.2837 22.8704C83.1919 25.5808 84.7154 27.4083 85.0671 27.4083C85.4185 27.4083 86.9456 25.5773 88.8573 22.8631C90.6186 20.3633 92.1804 18.3171 92.328 18.3161C92.4756 18.315 92.5967 20.3605 92.5967 22.8613C92.5967 27.1946 92.6307 27.4083 93.3224 27.4083C94.0238 27.4083 94.0449 27.2299 93.9493 22.0743L93.8504 16.7403L92.7088 16.6323C91.81 16.5473 91.4669 16.7026 91.0969 17.3622C90.3496 18.6938 85.2749 25.6532 85.0488 25.6563C84.936 25.6581 83.4953 23.7312 81.8468 21.3748C80.1983 19.0184 78.6785 16.9743 78.4693 16.833C77.9921 16.5105 76.675 16.4889 76.358 16.7988ZM98.4559 16.9124C96.9245 17.5158 96.537 18.5878 96.537 22.2202C96.537 25.3097 96.6158 25.7102 97.401 26.6014C98.2435 27.5577 98.3713 27.5853 102.515 27.7046C107.537 27.8494 109.492 27.4534 110.091 26.1694C110.67 24.9274 110.616 18.6581 110.019 17.8907C109.763 17.5616 109.113 17.1289 108.574 16.9289C107.404 16.4945 99.5488 16.4815 98.4559 16.9124ZM113.612 16.7988C113.48 16.9268 113.373 19.3664 113.373 22.2202V27.4083H119.042C124.504 27.4083 124.739 27.3789 125.49 26.5989C126.604 25.4402 126.545 23.4283 125.365 22.3604C124.63 21.6952 124.564 21.5049 125.007 21.3388C125.379 21.1992 125.55 20.6585 125.547 19.6368C125.539 17.7515 125.264 17.3364 123.738 16.9089C122.368 16.5252 113.985 16.4339 113.612 16.7988ZM129.015 16.7988C128.883 16.9268 128.776 19.3664 128.776 22.2202C128.776 27.175 128.808 27.4083 129.492 27.4083C130.178 27.4083 130.209 27.175 130.209 21.9869C130.209 17.7022 130.108 16.5655 129.731 16.5655C129.468 16.5655 129.146 16.6704 129.015 16.7988ZM133.679 16.7914C133.543 16.9236 133.432 19.3664 133.432 22.2202V27.4083H138.447C142.666 27.4083 143.462 27.3251 143.462 26.8837C143.462 26.4464 142.747 26.359 139.174 26.359H134.885L134.786 21.5784C134.693 17.1251 134.443 16.045 133.679 16.7914ZM145.253 21.9869V27.4083H150.627C155.164 27.4083 156 27.3268 156 26.8837C156 26.4443 155.243 26.359 151.343 26.359H146.686V24.4353V22.5115H151.164C154.905 22.5115 155.641 22.4251 155.641 21.9869C155.641 21.5486 154.905 21.4622 151.164 21.4622H146.686V19.7134V17.9645H151.343C155.761 17.9645 156 17.9285 156 17.265C156 16.5966 155.761 16.5655 150.627 16.5655H145.253V21.9869ZM66.4883 18.2762C67.204 18.8421 67.3451 19.3227 67.4626 21.599C67.6216 24.6686 67.4959 24.7578 65.1937 23.2111C63.5316 22.0946 63.0383 21.9554 62.6902 22.5052C62.5705 22.6941 63.3768 23.4132 64.4816 24.1033C65.5866 24.7934 66.4274 25.544 66.3503 25.771C66.2551 26.0516 64.7932 26.2159 61.8022 26.2828C56.1152 26.4101 56.0594 26.3698 56.0594 22.1744C56.0594 19.1468 56.3556 18.2541 57.4922 17.8575C57.7877 17.7543 59.7446 17.6574 61.8405 17.6424C65.0719 17.619 65.779 17.7155 66.4883 18.2762ZM108.619 18.4196C109.13 18.9184 109.253 19.6382 109.253 22.1205C109.253 26.415 109.327 26.359 103.683 26.359C97.8914 26.359 97.9698 26.4188 97.9698 22.0047C97.9698 17.6557 98.0243 17.6179 104.141 17.7298C107.277 17.7872 108.102 17.9145 108.619 18.4196ZM124.246 18.733C124.506 19.1356 124.516 19.642 124.276 20.3069L123.924 21.2873L119.365 21.3853L114.806 21.4832V19.7134V17.9436L119.334 18.0415C123.134 18.1237 123.925 18.2349 124.246 18.733ZM71.4623 22.5115C71.4623 23.4444 71.5816 23.5608 72.537 23.5608C73.4923 23.5608 73.6116 23.4444 73.6116 22.5115C73.6116 21.5787 73.4923 21.4622 72.537 21.4622C71.5816 21.4622 71.4623 21.5787 71.4623 22.5115ZM124.143 22.8735C124.937 23.2887 125.106 25.2558 124.406 25.9393C124.116 26.2219 122.479 26.359 119.391 26.359H114.806V24.4353V22.5115H119.128C121.505 22.5115 123.762 22.6745 124.143 22.8735Z" fill="#2159B8"/>
<path fill-rule="evenodd" clip-rule="evenodd" d="M18.1415 5.00209C24.3073 7.24026 28.8845 12.441 30.1397 18.634L30.3819 19.8285L30.8687 17.9345C32.439 11.825 36.9557 6.9538 42.9851 4.86743L45.4925 4L30.4478 4.00385L15.403 4.00769L18.1415 5.00209ZM12 22.017V32.0473L13.4626 31.856C15.3761 31.6052 15.4958 31.437 14.5999 30.2537L13.848 29.2603L16.6033 26.5857C18.1189 25.1142 19.5041 23.9106 19.6811 23.9106C19.8584 23.9106 20.299 24.1719 20.6604 24.4916C21.5083 25.2404 21.6501 25.0666 21.9048 22.9673C22.4927 18.1198 18.528 13.1454 13.3433 12.2252L12 11.9866V22.017ZM46.5836 12.4127C43.3297 13.157 40.3544 16.0216 39.2199 19.5021C38.313 22.2838 39.2758 26.1019 41.5494 28.7402C42.6587 30.0277 46.4533 31.9553 47.8782 31.9553H48.8955V21.9869C48.8955 14.2266 48.7963 12.0262 48.4478 12.0534C48.2017 12.073 47.3627 12.2346 46.5836 12.4127ZM29.9663 26.0669C29.7303 27.0932 29.1568 28.7199 28.6922 29.6818L27.8479 31.4307L29.4949 33.0942L31.1416 34.758L28.4755 37.3788L25.809 40L35.4716 39.9885L45.1343 39.9766L43.0241 39.2679C37.1337 37.2896 32.4881 32.2393 30.8819 26.0669L30.3962 24.2009L29.9663 26.0669ZM20.0597 38.325C19.2716 38.7331 17.9821 39.2665 17.194 39.5103C15.8665 39.9206 16.0886 39.9549 20.2191 39.9766L24.6774 40L23.3087 38.7758C22.5557 38.1025 21.8393 37.5586 21.7161 37.567C21.5932 37.5757 20.8478 37.9168 20.0597 38.325Z" fill="#2159B8"/>
</svg>
