<svg width="140" height="39" viewBox="0 0 140 39" fill="none" xmlns="http://www.w3.org/2000/svg">
<path fill-rule="evenodd" clip-rule="evenodd" d="M44.4882 13.5685C43.3053 14.153 42.8997 15.2461 42.8946 17.8643C42.8892 20.5182 43.313 22.0522 44.1759 22.503C45.1094 22.9908 53.4766 22.8914 54.187 22.384C54.513 22.1511 55.0419 22.0277 55.3622 22.1094C55.9886 22.2692 56.2032 21.4456 55.6262 21.0974C55.4501 20.9911 55.3078 19.5836 55.3078 17.9461C55.3078 15.0901 55.2753 14.9551 54.3771 14.078L53.4464 13.1693L49.3621 13.1739C46.7266 13.1767 44.9977 13.3169 44.4882 13.5685ZM62.2068 13.3766C62.0899 13.4904 61.9944 15.659 61.9944 18.1957C61.9944 22.6 62.0231 22.8074 62.6312 22.8074C63.2352 22.8074 63.268 22.6 63.268 18.7656C63.268 16.5426 63.3757 14.7272 63.5068 14.7319C63.638 14.7362 65.0234 16.5551 66.5852 18.7737C68.2814 21.1829 69.6356 22.8074 69.9483 22.8074C70.2606 22.8074 71.618 21.1798 73.3174 18.7672C74.883 16.5451 76.2713 14.7263 76.4024 14.7254C76.5336 14.7244 76.6412 16.5426 76.6412 18.7656C76.6412 22.6174 76.6715 22.8074 77.2863 22.8074C77.9098 22.8074 77.9286 22.6488 77.8436 18.0661L77.7557 13.3247L76.7409 13.2286C75.942 13.1531 75.637 13.2911 75.3081 13.8775C74.6439 15.0611 70.133 21.2473 69.932 21.2501C69.8317 21.2516 68.5511 19.5388 67.0858 17.4442C65.6204 15.3497 64.2694 13.5327 64.0835 13.4071C63.6594 13.1205 62.4886 13.1012 62.2068 13.3766ZM81.8495 13.4777C80.4883 14.014 80.1438 14.9669 80.1438 18.1957C80.1438 20.942 80.2138 21.298 80.9118 22.0901C81.6607 22.9402 81.7743 22.9647 85.4577 23.0707C89.9215 23.1995 91.659 22.8475 92.1914 21.7062C92.7066 20.6021 92.6582 15.0294 92.1277 14.3473C91.9001 14.0547 91.3222 13.6701 90.8433 13.4923C89.8034 13.1062 82.8209 13.0946 81.8495 13.4777ZM95.3214 13.3766C95.2045 13.4904 95.109 15.659 95.109 18.1957V22.8074H100.148C105.004 22.8074 105.212 22.7813 105.88 22.088C106.87 21.0579 106.818 19.2696 105.769 18.3204C105.116 17.729 105.056 17.5599 105.45 17.4122C105.781 17.2882 105.933 16.8075 105.93 15.8993C105.924 14.2236 105.679 13.8545 104.323 13.4746C103.105 13.1335 95.6532 13.0524 95.3214 13.3766ZM109.013 13.3766C108.896 13.4904 108.801 15.659 108.801 18.1957C108.801 22.6 108.829 22.8074 109.437 22.8074C110.047 22.8074 110.074 22.6 110.074 17.9883C110.074 14.1797 109.985 13.1693 109.65 13.1693C109.416 13.1693 109.13 13.2625 109.013 13.3766ZM113.159 13.3701C113.038 13.4876 112.94 15.659 112.94 18.1957V22.8074H117.398C121.148 22.8074 121.855 22.7334 121.855 22.341C121.855 21.9524 121.22 21.8747 118.043 21.8747H114.231L114.143 17.6252C114.06 13.6667 113.839 12.7066 113.159 13.3701ZM123.448 17.9883V22.8074H128.224C132.257 22.8074 133 22.735 133 22.341C133 21.9505 132.328 21.8747 128.86 21.8747H124.721V20.1647V18.4547H128.701C132.027 18.4547 132.681 18.3779 132.681 17.9883C132.681 17.5988 132.027 17.522 128.701 17.522H124.721V15.9674V14.4129H128.86C132.787 14.4129 133 14.3809 133 13.7911C133 13.1969 132.787 13.1693 128.224 13.1693H123.448V17.9883ZM53.4336 14.6899C54.0698 15.193 54.1953 15.6202 54.2997 17.6435C54.4411 20.3721 54.3293 20.4513 52.2829 19.0765C50.8055 18.0841 50.367 17.9604 50.0575 18.4491C49.9512 18.617 50.6679 19.2562 51.6499 19.8696C52.6322 20.4831 53.3795 21.1503 53.311 21.352C53.2263 21.6014 51.9269 21.7475 49.2682 21.8069C44.2131 21.9201 44.1634 21.8843 44.1634 18.155C44.1634 15.4638 44.4268 14.6703 45.4371 14.3178C45.6998 14.226 47.4392 14.1399 49.3023 14.1266C52.1746 14.1057 52.8032 14.1915 53.4336 14.6899ZM90.8834 14.8174C91.3378 15.2607 91.4473 15.9006 91.4473 18.1071C91.4473 21.9244 91.5126 21.8747 86.4957 21.8747C81.3477 21.8747 81.4174 21.9278 81.4174 18.0042C81.4174 14.1384 81.4658 14.1048 86.9033 14.2043C89.6903 14.2553 90.4236 14.3684 90.8834 14.8174ZM104.774 15.096C105.005 15.4538 105.014 15.904 104.801 16.495L104.488 17.3665L100.435 17.4536L96.3827 17.5406V15.9674V14.3942L100.408 14.4813C103.786 14.5544 104.489 14.6532 104.774 15.096ZM57.8551 18.4547C57.8551 19.2839 57.9611 19.3874 58.8103 19.3874C59.6595 19.3874 59.7655 19.2839 59.7655 18.4547C59.7655 17.6255 59.6595 17.522 58.8103 17.522C57.9611 17.522 57.8551 17.6255 57.8551 18.4547ZM104.682 18.7765C105.388 19.1455 105.538 20.8941 104.916 21.5016C104.659 21.7528 103.204 21.8747 100.458 21.8747H96.3827V20.1647V18.4547H100.225C102.338 18.4547 104.344 18.5996 104.682 18.7765Z" fill="#2159B8"/>
<path fill-rule="evenodd" clip-rule="evenodd" d="M10.4591 2.89075C15.9399 4.88025 20.0086 9.50314 21.1243 15.0081L21.3395 16.0698L21.7722 14.3863C23.1681 8.95563 27.183 4.62562 32.5425 2.77105L34.7713 2L21.3981 2.00342L8.02489 2.00684L10.4591 2.89075ZM5 18.0152V26.9311L6.30007 26.761C8.00101 26.5381 8.10736 26.3885 7.31102 25.3367L6.64268 24.4538L9.09188 22.0763C10.4391 20.7683 11.6704 19.6984 11.8277 19.6984C11.9853 19.6984 12.3769 19.9307 12.6982 20.2148C13.4519 20.8805 13.578 20.726 13.8044 18.8599C14.3269 14.551 10.8027 10.1293 6.19404 9.31131L5 9.09927V18.0152ZM35.7412 9.47796C32.8488 10.1396 30.2041 12.6859 29.1956 15.7797C28.3894 18.2524 29.2453 21.6463 31.2663 23.9914C32.2524 25.1359 35.6253 26.8493 36.8919 26.8493H37.7962V17.9884C37.7962 11.0903 37.708 9.1344 37.3982 9.15865C37.1795 9.17606 36.4337 9.3197 35.7412 9.47796ZM20.9702 21.6152C20.7603 22.5274 20.2506 23.9734 19.8376 24.8284L19.0871 26.3829L20.5511 27.8616L22.0149 29.3406L19.6449 31.6702L17.2747 34.0002L25.8638 33.9899L34.4529 33.9794L32.5772 33.3495C27.3412 31.591 23.2118 27.1018 21.784 21.6152L21.3523 19.9565L20.9702 21.6152ZM12.1642 32.5113C11.4637 32.8741 10.3174 33.3482 9.61694 33.5649C8.43692 33.9296 8.63433 33.9601 12.3059 33.9794L16.2688 34.0002L15.0522 32.912C14.3829 32.3135 13.7461 31.8301 13.6365 31.8375C13.5273 31.8453 12.8647 32.1484 12.1642 32.5113Z" fill="#2159B8"/>
</svg>
