<svg width="20" height="20" viewBox="0 0 20 20" fill="none" xmlns="http://www.w3.org/2000/svg">
<path d="M15.7812 5.78125C15.7812 2.59354 13.1877 0 10 0C6.81229 0 4.21875 2.59354 4.21875 5.78125C4.21875 7.75574 5.21408 9.50195 6.72897 10.5455C5.31448 11.0335 4.0181 11.8398 2.92892 12.9289C1.04019 14.8177 0 17.3289 0 20H1.5625C1.5625 15.3476 5.3476 11.5625 10 11.5625C13.1877 11.5625 15.7812 8.96896 15.7812 5.78125ZM10 10C7.6738 10 5.78125 8.10745 5.78125 5.78125C5.78125 3.45505 7.6738 1.5625 10 1.5625C12.3262 1.5625 14.2188 3.45505 14.2188 5.78125C14.2188 8.10745 12.3262 10 10 10ZM12.5781 15.3117H20V16.8742H12.5781V15.3117ZM20 12.1875V13.75H12.5781V12.1875H20ZM12.5781 18.4375H20V20H12.5781V18.4375Z" fill="#767E8A"/>
</svg>
