<svg width="20" height="20" viewBox="0 0 20 20" fill="none" xmlns="http://www.w3.org/2000/svg">
<g clip-path="url(#clip0)">
<path d="M18.0001 8.00003H2.00001C0.900005 8.00003 0 8.90004 0 10C0 11.1 0.900005 12.0001 2.00001 12.0001H18.0001C19.1001 12.0001 20.0001 11.1 20.0001 10C20.0001 8.90004 19.1001 8.00003 18.0001 8.00003Z" fill="#767E8A"/>
<path d="M2.00001 6.00002H14.0001C15.1001 6.00002 16.0001 5.10002 16.0001 4.00001C16.0001 2.9 15.1001 2 14.0001 2H2.00001C0.900005 2 0 2.9 0 4.00001C0 5.10002 0.900005 6.00002 2.00001 6.00002Z" fill="#767E8A"/>
<path d="M14.0001 14.0001H2.00001C0.900005 14.0001 0 14.9001 0 16.0001C0 17.1001 0.900005 18.0001 2.00001 18.0001H14.0001C15.1001 18.0001 16.0001 17.1001 16.0001 16.0001C16.0001 14.9001 15.1001 14.0001 14.0001 14.0001Z" fill="#767E8A"/>
</g>
<defs>
<clipPath id="clip0">
<rect width="20" height="20" fill="white"/>
</clipPath>
</defs>
</svg>
