<svg width="20" height="20" viewBox="0 0 20 20" fill="none" xmlns="http://www.w3.org/2000/svg">
<g clip-path="url(#clip0)">
<path d="M19.7367 6.88184C19.5454 6.672 19.2746 6.55229 18.9906 6.55229H1.00938C0.725445 6.55229 0.454532 6.672 0.263258 6.88184C0.0719842 7.09169 -0.0219874 7.37249 0.00435695 7.65522L0.963755 17.9607C1.0121 18.4797 1.44754 18.8765 1.96878 18.8765H18.0312C18.5524 18.8765 18.9878 18.4796 19.0362 17.9607L19.9956 7.65522C20.0219 7.37249 19.9279 7.09169 19.7367 6.88184ZM13.3666 16.7628C13.3659 16.7627 13.3653 16.7627 13.3646 16.7628H6.63546C6.07799 16.7628 5.6261 16.3108 5.6261 15.7534C5.6261 14.3827 6.74124 13.2676 8.11195 13.2676H8.83637C8.09136 12.856 7.58547 12.0624 7.58547 11.1528C7.58547 9.82141 8.66862 8.73816 10.0001 8.73816C11.3315 8.73816 12.4147 9.82131 12.4147 11.1528C12.4147 12.0624 11.9088 12.856 11.1638 13.2676H11.8882C13.2309 13.2676 14.3284 14.3378 14.3726 15.6701C14.3748 15.6975 14.3761 15.7254 14.3761 15.7534C14.376 16.3109 13.9241 16.7628 13.3666 16.7628ZM18.0581 4.67316C18.0581 5.09134 17.7192 5.43018 17.3011 5.43018H2.69895C2.28087 5.43018 1.94193 5.09134 1.94193 4.67316C1.94193 4.25498 2.28087 3.91614 2.69895 3.91614H17.3011C17.7192 3.91614 18.0581 4.25498 18.0581 4.67316ZM16.0596 1.88056C16.0596 2.29874 15.7206 2.63758 15.3025 2.63758H4.69749C4.27941 2.63758 3.94046 2.29874 3.94046 1.88056C3.94046 1.46238 4.27941 1.12354 4.69749 1.12354H15.3024C15.7206 1.12354 16.0596 1.46238 16.0596 1.88056Z" fill="#767E8A"/>
</g>
<defs>
<clipPath id="clip0">
<rect width="20" height="20" fill="white"/>
</clipPath>
</defs>
</svg>
