<svg width="20" height="20" viewBox="0 0 20 20" fill="none" xmlns="http://www.w3.org/2000/svg">
<path d="M19.5565 8.25992L18.559 8.02016C18.3404 7.06687 17.9696 6.17023 17.4535 5.34566L17.9599 4.50109C18.0984 4.27051 18.0618 3.97523 17.8718 3.78527L16.2147 2.12816C16.0253 1.93762 15.7295 1.90102 15.4989 2.04004L14.6543 2.54645C13.8298 2.03031 12.9331 1.65953 11.9798 1.44094L11.74 0.4825C11.6748 0.222188 11.4408 0 11.1719 0H8.82812C8.55918 0 8.32516 0.222187 8.25992 0.482539L8.02016 1.44098C7.06687 1.65957 6.17023 2.03035 5.34566 2.54648L4.50109 2.04008C4.27051 1.90273 3.97523 1.93824 3.78527 2.1282L2.12816 3.78527C1.9382 3.97523 1.90156 4.27051 2.04004 4.50109L2.54645 5.34566C2.03031 6.1702 1.65953 7.06687 1.44094 8.02016L0.443438 8.25992C0.183125 8.32516 0 8.55918 0 8.82812V11.1719C0 11.4408 0.183125 11.6748 0.443477 11.7401L1.44098 11.9798C1.65957 12.9331 2.03035 13.8298 2.54648 14.6543L2.04008 15.4989C1.9016 15.7295 1.93824 16.0248 2.1282 16.2147L3.78531 17.8718C3.97473 18.0624 4.26941 18.0973 4.50113 17.96L5.3457 17.4536C6.17023 17.9697 7.06691 18.3405 8.0202 18.5591L8.25996 19.5566C8.32516 19.8169 8.55918 20 8.82812 20H11.1719C11.4408 20 11.6748 19.8169 11.7401 19.5565L11.9798 18.559C12.9331 18.3404 13.8298 17.9696 14.6543 17.4535L15.4989 17.9599C15.7289 18.0978 16.0248 18.0612 16.2147 17.8718L17.8718 16.2147C18.0618 16.0247 18.0984 15.7295 17.96 15.4989L17.4536 14.6543C17.9697 13.8298 18.3405 12.9331 18.5591 11.9798L19.5566 11.74C19.8169 11.6748 20 11.4408 20 11.1719V8.82812C20 8.55918 19.8169 8.32516 19.5565 8.25992ZM10 16.4453C6.44605 16.4453 3.55469 13.5539 3.55469 10C3.55469 6.44605 6.44605 3.55469 10 3.55469C13.5539 3.55469 16.4453 6.44605 16.4453 10C16.4453 13.5539 13.5539 16.4453 10 16.4453Z" fill="#767E8A"/>
<path d="M10.293 5.92649C10.1122 5.82235 9.88789 5.82235 9.70707 5.92649L6.93359 7.52774L10 9.29813L13.0665 7.52774L10.293 5.92649Z" fill="#767E8A"/>
<path d="M10.5859 10.3132V13.854L13.3594 12.2528C13.5408 12.148 13.6328 11.9546 13.6328 11.7452V8.54279L10.5859 10.3132Z" fill="#767E8A"/>
<path d="M7 9V12.2025C7 12.412 7.11156 12.6054 7.29297 12.7101L10.0469 14.3113V10.7703L7 9Z" fill="#767E8A"/>
</svg>
