<svg width="20" height="20" viewBox="0 0 20 20" fill="none" xmlns="http://www.w3.org/2000/svg">
<path d="M12.9502 12.1167C12.8399 12.1162 12.7309 12.0939 12.6293 12.051C12.5278 12.008 12.4357 11.9454 12.3585 11.8667C12.2033 11.7105 12.1162 11.4993 12.1162 11.2792C12.1162 11.059 12.2033 10.8478 12.3585 10.6917C12.6685 10.3821 12.9143 10.0145 13.0821 9.60979C13.2498 9.20513 13.3362 8.77138 13.3362 8.33332C13.3362 7.89527 13.2498 7.46152 13.0821 7.05686C12.9143 6.6522 12.6685 6.28457 12.3585 5.97499C12.222 5.81557 12.1507 5.61051 12.1588 5.40078C12.1669 5.19105 12.2538 4.9921 12.4022 4.84369C12.5506 4.69528 12.7496 4.60833 12.9593 4.60023C13.1691 4.59213 13.3741 4.66347 13.5335 4.79999C14.4699 5.73749 14.9958 7.00832 14.9958 8.33332C14.9958 9.65833 14.4699 10.9292 13.5335 11.8667C13.3797 12.0237 13.17 12.1135 12.9502 12.1167Z" fill="#767E8A"/>
<path d="M15.3003 14.4667C15.0817 14.4657 14.8722 14.3789 14.7169 14.225C14.5617 14.0688 14.4746 13.8576 14.4746 13.6375C14.4746 13.4173 14.5617 13.2061 14.7169 13.05C15.3368 12.4308 15.8285 11.6956 16.164 10.8863C16.4995 10.0769 16.6722 9.20942 16.6722 8.33332C16.6722 7.45722 16.4995 6.5897 16.164 5.78038C15.8285 4.97106 15.3368 4.23581 14.7169 3.61665C14.5804 3.45723 14.5091 3.25217 14.5172 3.04244C14.5253 2.83271 14.6122 2.63376 14.7606 2.48535C14.909 2.33694 15.108 2.24999 15.3177 2.24189C15.5275 2.23379 15.7325 2.30513 15.8919 2.44165C17.4542 4.00438 18.3318 6.12362 18.3318 8.33332C18.3318 10.543 17.4542 12.6623 15.8919 14.225C15.8141 14.3022 15.7217 14.3633 15.6202 14.4048C15.5187 14.4463 15.4099 14.4673 15.3003 14.4667Z" fill="#767E8A"/>
<path d="M7.04951 12.1167C6.8297 12.1135 6.62003 12.0237 6.46617 11.8667C5.52984 10.9292 5.00391 9.65833 5.00391 8.33332C5.00391 7.00832 5.52984 5.73749 6.46617 4.79999C6.62559 4.66347 6.83065 4.59213 7.04038 4.60023C7.25011 4.60833 7.44906 4.69528 7.59748 4.84369C7.74589 4.9921 7.83283 5.19105 7.84093 5.40078C7.84903 5.61051 7.7777 5.81557 7.64117 5.97499C7.33125 6.28457 7.08539 6.6522 6.91764 7.05686C6.74989 7.46152 6.66355 7.89527 6.66355 8.33332C6.66355 8.77138 6.74989 9.20513 6.91764 9.60979C7.08539 10.0145 7.33125 10.3821 7.64117 10.6917C7.79638 10.8478 7.8835 11.059 7.8835 11.2792C7.8835 11.4993 7.79638 11.7105 7.64117 11.8667C7.56399 11.9454 7.47196 12.008 7.37039 12.051C7.26883 12.0939 7.15976 12.1162 7.04951 12.1167Z" fill="#767E8A"/>
<path d="M4.7005 14.4667C4.59083 14.4673 4.48211 14.4463 4.38058 14.4048C4.27905 14.3633 4.1867 14.3022 4.10883 14.225C2.54657 12.6623 1.66895 10.543 1.66895 8.33334C1.66895 6.12364 2.54657 4.00441 4.10883 2.44168C4.18354 2.35444 4.27547 2.28359 4.37886 2.23357C4.48224 2.18355 4.59486 2.15544 4.70962 2.15101C4.82439 2.14658 4.93883 2.16592 5.04577 2.20781C5.15271 2.24971 5.24983 2.31326 5.33104 2.39447C5.41225 2.47568 5.4758 2.5728 5.5177 2.67974C5.55959 2.78668 5.57893 2.90112 5.5745 3.01589C5.57006 3.13065 5.54196 3.24327 5.49194 3.34665C5.44192 3.45004 5.37107 3.54197 5.28383 3.61668C4.66399 4.23583 4.17226 4.97109 3.83677 5.78041C3.50127 6.58973 3.32859 7.45724 3.32859 8.33334C3.32859 9.20945 3.50127 10.077 3.83677 10.8863C4.17226 11.6956 4.66399 12.4309 5.28383 13.05C5.43904 13.2061 5.52616 13.4174 5.52616 13.6375C5.52616 13.8577 5.43904 14.0689 5.28383 14.225C5.12862 14.379 4.91912 14.4658 4.7005 14.4667Z" fill="#767E8A"/>
<path d="M11.6663 8.33332C11.6663 7.8913 11.4907 7.46737 11.1782 7.15481C10.8656 6.84225 10.4417 6.66666 9.99967 6.66666C9.55765 6.66666 9.13372 6.84225 8.82116 7.15481C8.5086 7.46737 8.33301 7.8913 8.33301 8.33332C8.33476 8.62418 8.41261 8.90951 8.5588 9.16096C8.70499 9.41242 8.91444 9.62123 9.16634 9.76666V16.6667C9.16634 16.8877 9.25414 17.0996 9.41042 17.2559C9.5667 17.4122 9.77866 17.5 9.99967 17.5C10.2207 17.5 10.4326 17.4122 10.5889 17.2559C10.7452 17.0996 10.833 16.8877 10.833 16.6667V9.76666C11.0849 9.62123 11.2944 9.41242 11.4405 9.16096C11.5867 8.90951 11.6646 8.62418 11.6663 8.33332Z" fill="#767E8A"/>
</svg>
