<svg width="90" height="90" viewBox="0 0 90 90" fill="none" xmlns="http://www.w3.org/2000/svg">
<path d="M90 44.9807C90 44.9421 90 44.8842 90 44.8456C90 44.5367 90 44.2278 89.9807 43.9382C89.9807 43.7645 89.9614 43.5907 89.9614 43.3977C89.9614 43.2239 89.9421 43.0502 89.9421 42.8764C89.9227 42.6641 89.9227 42.4517 89.9034 42.2394C89.9034 42.1042 89.8841 41.9691 89.8841 41.834C89.8648 41.6023 89.8455 41.3707 89.8262 41.139C89.8262 41.0425 89.8069 40.9266 89.8069 40.8301C89.7876 40.5792 89.7489 40.3282 89.7296 40.0579C89.7296 40 89.7103 39.9228 89.7103 39.8649C87.1609 17.4324 68.118 0 45 0C21.882 0 2.83906 17.4324 0.2897 39.8842C0.2897 39.9421 0.270386 40.0193 0.270386 40.0772C0.251073 40.3282 0.212446 40.5792 0.193133 40.8494C0.17382 40.9459 0.17382 41.0618 0.17382 41.1583C0.154506 41.39 0.135193 41.6216 0.11588 41.8533C0.11588 41.9884 0.0965665 42.1236 0.0965665 42.2587C0.0772532 42.471 0.0772531 42.6834 0.0579398 42.8958C0.0579398 43.0695 0.0386268 43.2432 0.0386268 43.417C0.0386268 43.5907 0.0193134 43.7645 0.0193134 43.9575C0.0193134 44.2664 0 44.5753 0 44.8649C0 44.9035 0 44.9614 0 45C0 45 0 45 0 45.0193C0 45.0386 0 45.0193 0 45.0386C0 45.0772 0 45.1351 0 45.1737C0 45.4826 7.33866e-08 45.7915 0.0193134 46.0811C0.0193134 46.2548 0.0386268 46.4286 0.0386268 46.6216C0.0386268 46.7954 0.0579398 46.9691 0.0579398 47.1429C0.0772531 47.3552 0.0772532 47.5676 0.0965665 47.7799C0.0965665 47.9151 0.11588 48.0502 0.11588 48.1853C0.135193 48.417 0.154506 48.6487 0.17382 48.8803C0.17382 48.9768 0.193133 49.0927 0.193133 49.1892C0.212446 49.4402 0.251073 49.6911 0.270386 49.9614C0.270386 50.0193 0.2897 50.0965 0.2897 50.1544C2.83906 72.5676 21.882 90 45 90C68.118 90 87.1609 72.5676 89.7103 50.1351C89.7103 50.0772 89.7296 50 89.7296 49.9421C89.7489 49.6911 89.7876 49.4402 89.8069 49.1699C89.8262 49.0734 89.8262 48.9575 89.8262 48.861C89.8455 48.6293 89.8648 48.3977 89.8841 48.166C89.8841 48.0309 89.9034 47.8958 89.9034 47.7606C89.9227 47.5483 89.9227 47.3359 89.9421 47.1236C89.9421 46.9498 89.9614 46.7761 89.9614 46.6023C89.9614 46.4286 89.9807 46.2548 89.9807 46.0618C89.9807 45.7529 90 45.444 90 45.1544C90 45.1158 90 45.0579 90 45.0193C90 45 90 45 90 44.9807C90 45 90 45 90 44.9807Z" fill="#2BB673"/>
<path d="M36.8105 62.0272L66.9586 31.9114" stroke="white" stroke-width="5.79795" stroke-miterlimit="10"/>
<path d="M40.7124 62.22L25.4355 46.9497" stroke="white" stroke-width="5.79795" stroke-miterlimit="10"/>
</svg>
